<svg xmlns="http://www.w3.org/2000/svg" viewBox="0 0 512 512">
  <circle cx="256" cy="256" r="256" fill="#f8a24a" />
  <g>
    <path d="M256 100 C 180 100, 120 130, 120 160 C 120 175, 140 185, 180 185 L 332 185 C 372 185, 392 175, 392 160 C 392 130, 332 100, 256 100 Z" fill="#e8941a" />
    <path d="M120 160 L 392 160 L 392 170 L 120 170 Z" fill="#d68210" />
    <path d="M120 320 L 392 320 L 392 330 L 120 330 Z" fill="#d68210" />
    <path d="M120 330 C 120 360, 180 390, 256 390 C 332 390, 392 360, 392 330 L 392 320 L 120 320 Z" fill="#e8941a" />
    
    <!-- Lettuce -->
    <path d="M140 280 C 140 280, 160 260, 180 280 C 200 300, 220 280, 240 280 C 260 280, 280 300, 300 280 C 320 260, 340 280, 360 280 C 380 280, 390 270, 390 270 L 390 290 L 122 290 L 122 270 C 122 270, 130 270, 140 280 Z" fill="#4CAF50" />
    
    <!-- Meat patty -->
    <ellipse cx="256" cy="240" rx="130" ry="30" fill="#5D4037" />
    
    <!-- Cheese -->
    <path d="M150 220 L 362 220 L 362 240 L 150 240 Z" fill="#FFC107" />
    
    <!-- Bacon -->
    <path d="M170 200 C 170 200, 190 190, 200 200 C 210 210, 230 190, 240 200 C 250 210, 270 190, 280 200 C 290 210, 310 190, 320 200 C 330 210, 350 200, 350 200 L 350 210 L 170 210 Z" fill="#D32F2F" />
    
    <!-- Tomato -->
    <path d="M180 290 L 332 290 L 332 300 L 180 300 Z" fill="#F44336" />
    
    <!-- Sesame seeds -->
    <circle cx="200" cy="120" r="5" fill="#FFF9C4" />
    <circle cx="220" cy="110" r="5" fill="#FFF9C4" />
    <circle cx="240" cy="115" r="5" fill="#FFF9C4" />
    <circle cx="260" cy="110" r="5" fill="#FFF9C4" />
    <circle cx="280" cy="120" r="5" fill="#FFF9C4" />
    <circle cx="300" cy="115" r="5" fill="#FFF9C4" />
    <circle cx="320" cy="110" r="5" fill="#FFF9C4" />
  </g>
</svg>